<mxfile host="app.diagrams.net" agent="Mozilla/5.0 (Windows NT 10.0; Win64; x64) AppleWebKit/537.36 (KHTML, like Gecko) Chrome/130.0.0.0 Safari/537.36 Edg/130.0.0.0" version="24.8.6">
  <diagram name="第 1 页" id="W-QixzdMost3ZCGPpL7L">
    <mxGraphModel dx="2505" dy="2097" grid="0" gridSize="10" guides="1" tooltips="1" connect="1" arrows="1" fold="1" page="1" pageScale="1" pageWidth="827" pageHeight="1169" background="#ffffff" math="0" shadow="1">
      <root>
        <mxCell id="0" />
        <mxCell id="1" parent="0" />
        <mxCell id="7OBV4AjD6HKa3d46_83u-3" value="" style="edgeStyle=orthogonalEdgeStyle;rounded=0;orthogonalLoop=1;jettySize=auto;html=1;strokeWidth=2;" edge="1" parent="1" source="7OBV4AjD6HKa3d46_83u-1" target="7OBV4AjD6HKa3d46_83u-2">
          <mxGeometry relative="1" as="geometry" />
        </mxCell>
        <mxCell id="7OBV4AjD6HKa3d46_83u-1" value="&lt;b&gt;&lt;font style=&quot;font-size: 25px;&quot;&gt;系能源与电力工程院&lt;/font&gt;&lt;/b&gt;" style="rounded=0;whiteSpace=wrap;html=1;fillColor=#1ba1e2;strokeColor=#006EAF;fontColor=#ffffff;" vertex="1" parent="1">
          <mxGeometry x="383" y="-40" width="270" height="60" as="geometry" />
        </mxCell>
        <mxCell id="7OBV4AjD6HKa3d46_83u-13" value="" style="swimlane;startSize=0;movable=0;resizable=0;rotatable=0;deletable=0;editable=0;locked=1;connectable=0;" vertex="1" parent="1">
          <mxGeometry x="110" y="100" width="816" height="280" as="geometry">
            <mxRectangle x="94" y="130" width="50" height="40" as="alternateBounds" />
          </mxGeometry>
        </mxCell>
        <mxCell id="7OBV4AjD6HKa3d46_83u-22" value="" style="edgeStyle=orthogonalEdgeStyle;rounded=0;orthogonalLoop=1;jettySize=auto;html=1;strokeWidth=2;" edge="1" parent="7OBV4AjD6HKa3d46_83u-13" target="7OBV4AjD6HKa3d46_83u-21">
          <mxGeometry relative="1" as="geometry">
            <mxPoint x="306" y="140" as="sourcePoint" />
          </mxGeometry>
        </mxCell>
        <mxCell id="7OBV4AjD6HKa3d46_83u-24" value="" style="edgeStyle=orthogonalEdgeStyle;rounded=0;orthogonalLoop=1;jettySize=auto;html=1;strokeWidth=2;" edge="1" parent="7OBV4AjD6HKa3d46_83u-13" target="7OBV4AjD6HKa3d46_83u-23">
          <mxGeometry relative="1" as="geometry">
            <mxPoint x="306" y="140" as="sourcePoint" />
          </mxGeometry>
        </mxCell>
        <mxCell id="7OBV4AjD6HKa3d46_83u-4" value="&lt;font style=&quot;font-size: 14px;&quot;&gt;副院长1&lt;/font&gt;" style="rounded=0;whiteSpace=wrap;html=1;fillColor=#1ba1e2;strokeColor=#006EAF;fontColor=#ffffff;fontStyle=1" vertex="1" parent="7OBV4AjD6HKa3d46_83u-13">
          <mxGeometry x="358" y="200" width="100" height="40" as="geometry" />
        </mxCell>
        <mxCell id="7OBV4AjD6HKa3d46_83u-21" value="&lt;font style=&quot;font-size: 14px;&quot;&gt;总工&lt;/font&gt;" style="rounded=0;whiteSpace=wrap;html=1;fillColor=#1ba1e2;strokeColor=#006EAF;fontColor=#ffffff;" vertex="1" parent="7OBV4AjD6HKa3d46_83u-13">
          <mxGeometry x="673" y="200" width="100" height="40" as="geometry" />
        </mxCell>
        <mxCell id="7OBV4AjD6HKa3d46_83u-80" value="" style="edgeStyle=orthogonalEdgeStyle;rounded=0;orthogonalLoop=1;jettySize=auto;html=1;strokeWidth=2;" edge="1" parent="7OBV4AjD6HKa3d46_83u-13" target="7OBV4AjD6HKa3d46_83u-79">
          <mxGeometry relative="1" as="geometry">
            <mxPoint x="360" y="140" as="sourcePoint" />
          </mxGeometry>
        </mxCell>
        <mxCell id="7OBV4AjD6HKa3d46_83u-23" value="&lt;font style=&quot;font-size: 14px;&quot;&gt;副院长2&lt;/font&gt;" style="rounded=0;whiteSpace=wrap;html=1;fillColor=#1ba1e2;strokeColor=#006EAF;fontColor=#ffffff;" vertex="1" parent="7OBV4AjD6HKa3d46_83u-13">
          <mxGeometry x="186" y="200" width="100" height="40" as="geometry" />
        </mxCell>
        <mxCell id="7OBV4AjD6HKa3d46_83u-6" value="院副总工/分院总工" style="rounded=0;whiteSpace=wrap;html=1;fillColor=#1ba1e2;fontColor=#ffffff;strokeColor=#006EAF;fontStyle=1" vertex="1" parent="7OBV4AjD6HKa3d46_83u-13">
          <mxGeometry x="46" y="70" width="120" height="40" as="geometry" />
        </mxCell>
        <mxCell id="7OBV4AjD6HKa3d46_83u-2" value="&lt;font style=&quot;font-size: 14px;&quot;&gt;院长&lt;/font&gt;" style="rounded=0;whiteSpace=wrap;html=1;fillColor=#1ba1e2;strokeColor=#006EAF;fontColor=#ffffff;fontStyle=1" vertex="1" parent="7OBV4AjD6HKa3d46_83u-13">
          <mxGeometry x="358" y="30" width="100" height="40" as="geometry" />
        </mxCell>
        <mxCell id="7OBV4AjD6HKa3d46_83u-5" value="" style="edgeStyle=orthogonalEdgeStyle;rounded=0;orthogonalLoop=1;jettySize=auto;html=1;strokeWidth=2;" edge="1" parent="7OBV4AjD6HKa3d46_83u-13" source="7OBV4AjD6HKa3d46_83u-2" target="7OBV4AjD6HKa3d46_83u-4">
          <mxGeometry relative="1" as="geometry">
            <mxPoint x="286" y="100" as="sourcePoint" />
            <Array as="points" />
          </mxGeometry>
        </mxCell>
        <mxCell id="7OBV4AjD6HKa3d46_83u-7" value="" style="edgeStyle=orthogonalEdgeStyle;rounded=0;orthogonalLoop=1;jettySize=auto;html=1;entryX=1;entryY=0.5;entryDx=0;entryDy=0;exitX=0.5;exitY=1;exitDx=0;exitDy=0;strokeWidth=2;" edge="1" parent="7OBV4AjD6HKa3d46_83u-13" source="7OBV4AjD6HKa3d46_83u-2" target="7OBV4AjD6HKa3d46_83u-6">
          <mxGeometry relative="1" as="geometry">
            <mxPoint x="326" y="95" as="sourcePoint" />
            <mxPoint x="246" y="145" as="targetPoint" />
          </mxGeometry>
        </mxCell>
        <mxCell id="7OBV4AjD6HKa3d46_83u-14" value="" style="edgeStyle=orthogonalEdgeStyle;rounded=0;orthogonalLoop=1;jettySize=auto;html=1;" edge="1" parent="7OBV4AjD6HKa3d46_83u-13" source="7OBV4AjD6HKa3d46_83u-2" target="7OBV4AjD6HKa3d46_83u-4">
          <mxGeometry relative="1" as="geometry" />
        </mxCell>
        <mxCell id="7OBV4AjD6HKa3d46_83u-17" value="" style="edgeStyle=orthogonalEdgeStyle;rounded=0;orthogonalLoop=1;jettySize=auto;html=1;" edge="1" parent="7OBV4AjD6HKa3d46_83u-13" source="7OBV4AjD6HKa3d46_83u-2" target="7OBV4AjD6HKa3d46_83u-4">
          <mxGeometry relative="1" as="geometry" />
        </mxCell>
        <mxCell id="7OBV4AjD6HKa3d46_83u-19" value="" style="edgeStyle=orthogonalEdgeStyle;rounded=0;orthogonalLoop=1;jettySize=auto;html=1;" edge="1" parent="7OBV4AjD6HKa3d46_83u-13" source="7OBV4AjD6HKa3d46_83u-2" target="7OBV4AjD6HKa3d46_83u-4">
          <mxGeometry relative="1" as="geometry" />
        </mxCell>
        <mxCell id="7OBV4AjD6HKa3d46_83u-20" value="" style="edgeStyle=orthogonalEdgeStyle;rounded=0;orthogonalLoop=1;jettySize=auto;html=1;" edge="1" parent="7OBV4AjD6HKa3d46_83u-13" source="7OBV4AjD6HKa3d46_83u-2" target="7OBV4AjD6HKa3d46_83u-4">
          <mxGeometry relative="1" as="geometry" />
        </mxCell>
        <mxCell id="7OBV4AjD6HKa3d46_83u-79" value="&lt;span style=&quot;font-size: 10px;&quot;&gt;。。。。。。&lt;/span&gt;" style="rounded=0;whiteSpace=wrap;html=1;fillColor=#1ba1e2;strokeColor=#006EAF;fontColor=#ffffff;align=center;" vertex="1" parent="7OBV4AjD6HKa3d46_83u-13">
          <mxGeometry x="30" y="200" width="100" height="40" as="geometry" />
        </mxCell>
        <mxCell id="7OBV4AjD6HKa3d46_83u-82" value="分院领导" style="rounded=0;whiteSpace=wrap;html=1;fillColor=#60a917;fontColor=#ffffff;strokeColor=#60A917;fontSize=20;" vertex="1" parent="7OBV4AjD6HKa3d46_83u-13">
          <mxGeometry x="690" y="10" width="120" height="40" as="geometry" />
        </mxCell>
        <mxCell id="7OBV4AjD6HKa3d46_83u-41" value="" style="swimlane;startSize=0;" vertex="1" parent="1">
          <mxGeometry x="-156" y="480" width="1348" height="80" as="geometry" />
        </mxCell>
        <mxCell id="7OBV4AjD6HKa3d46_83u-42" value="项目管理" style="rounded=0;whiteSpace=wrap;html=1;fillColor=#1ba1e2;fontColor=#ffffff;strokeColor=#006EAF;" vertex="1" parent="7OBV4AjD6HKa3d46_83u-41">
          <mxGeometry x="20" y="20" width="100" height="40" as="geometry" />
        </mxCell>
        <mxCell id="7OBV4AjD6HKa3d46_83u-43" value="&lt;div&gt;&lt;span style=&quot;font-size: 9.75pt;&quot;&gt;智慧新能源中心&lt;/span&gt;&lt;/div&gt;" style="rounded=0;whiteSpace=wrap;html=1;fillColor=#1ba1e2;fontColor=#ffffff;strokeColor=#006EAF;" vertex="1" parent="7OBV4AjD6HKa3d46_83u-41">
          <mxGeometry x="140" y="20" width="100" height="40" as="geometry" />
        </mxCell>
        <mxCell id="7OBV4AjD6HKa3d46_83u-65" value="&lt;div&gt;&lt;span style=&quot;font-size: 9.75pt;&quot;&gt;输电线路处&lt;/span&gt;&lt;/div&gt;" style="rounded=0;whiteSpace=wrap;html=1;fillColor=#1ba1e2;fontColor=#FFFFFF;strokeColor=#006EAF;" vertex="1" parent="7OBV4AjD6HKa3d46_83u-41">
          <mxGeometry x="260" y="20" width="100" height="40" as="geometry" />
        </mxCell>
        <mxCell id="7OBV4AjD6HKa3d46_83u-66" value="&lt;div&gt;&lt;span style=&quot;font-size: 9.75pt;&quot;&gt;太阳能处&lt;/span&gt;&lt;/div&gt;" style="rounded=0;whiteSpace=wrap;html=1;fillColor=#1ba1e2;fontColor=#FFFFFF;strokeColor=#006EAF;" vertex="1" parent="7OBV4AjD6HKa3d46_83u-41">
          <mxGeometry x="378" y="20" width="100" height="40" as="geometry" />
        </mxCell>
        <mxCell id="7OBV4AjD6HKa3d46_83u-67" value="&lt;div&gt;&lt;span style=&quot;font-size: 9.75pt;&quot;&gt;电气处&lt;/span&gt;&lt;/div&gt;" style="rounded=0;whiteSpace=wrap;html=1;fillColor=#1ba1e2;fontColor=#FFFFFF;strokeColor=#006EAF;" vertex="1" parent="7OBV4AjD6HKa3d46_83u-41">
          <mxGeometry x="498" y="20" width="100" height="40" as="geometry" />
        </mxCell>
        <mxCell id="7OBV4AjD6HKa3d46_83u-68" value="&lt;div&gt;&lt;span style=&quot;font-size: 9.75pt;&quot;&gt;规划处&lt;/span&gt;&lt;/div&gt;" style="rounded=0;whiteSpace=wrap;html=1;fillColor=#1ba1e2;fontColor=#FFFFFF;strokeColor=#006EAF;" vertex="1" parent="7OBV4AjD6HKa3d46_83u-41">
          <mxGeometry x="618" y="20" width="100" height="40" as="geometry" />
        </mxCell>
        <mxCell id="7OBV4AjD6HKa3d46_83u-69" value="&lt;div&gt;&lt;span style=&quot;font-size: 9.75pt;&quot;&gt;土建处&lt;/span&gt;&lt;/div&gt;" style="rounded=0;whiteSpace=wrap;html=1;fillColor=#1ba1e2;fontColor=#FFFFFF;strokeColor=#006EAF;" vertex="1" parent="7OBV4AjD6HKa3d46_83u-41">
          <mxGeometry x="738" y="20" width="100" height="40" as="geometry" />
        </mxCell>
        <mxCell id="7OBV4AjD6HKa3d46_83u-70" value="&lt;div&gt;&lt;span style=&quot;font-size: 9.75pt;&quot;&gt;海洋处&lt;/span&gt;&lt;/div&gt;" style="rounded=0;whiteSpace=wrap;html=1;fillColor=#1ba1e2;fontColor=#FFFFFF;strokeColor=#006EAF;" vertex="1" parent="7OBV4AjD6HKa3d46_83u-41">
          <mxGeometry x="858" y="20" width="100" height="40" as="geometry" />
        </mxCell>
        <mxCell id="7OBV4AjD6HKa3d46_83u-71" value="&lt;div&gt;&lt;span style=&quot;font-size: 9.75pt;&quot;&gt;经营处&lt;/span&gt;&lt;/div&gt;" style="rounded=0;whiteSpace=wrap;html=1;fillColor=#1ba1e2;fontColor=#FFFFFF;strokeColor=#006EAF;" vertex="1" parent="7OBV4AjD6HKa3d46_83u-41">
          <mxGeometry x="980" y="20" width="100" height="40" as="geometry" />
        </mxCell>
        <mxCell id="7OBV4AjD6HKa3d46_83u-72" value="&lt;div&gt;&lt;span style=&quot;font-size: 9.75pt;&quot;&gt;分院副总工&lt;/span&gt;&lt;/div&gt;" style="rounded=0;whiteSpace=wrap;html=1;fillColor=#1ba1e2;fontColor=#FFFFFF;strokeColor=#006EAF;" vertex="1" parent="7OBV4AjD6HKa3d46_83u-41">
          <mxGeometry x="1220" y="20" width="100" height="40" as="geometry" />
        </mxCell>
        <mxCell id="7OBV4AjD6HKa3d46_83u-73" value="&lt;div&gt;&lt;span style=&quot;font-size: 9.75pt;&quot;&gt;综合部&lt;/span&gt;&lt;/div&gt;" style="rounded=0;whiteSpace=wrap;html=1;fillColor=#1ba1e2;fontColor=#FFFFFF;strokeColor=#006EAF;" vertex="1" parent="7OBV4AjD6HKa3d46_83u-41">
          <mxGeometry x="1100" y="20" width="100" height="40" as="geometry" />
        </mxCell>
        <mxCell id="7OBV4AjD6HKa3d46_83u-83" value="分院二级部门" style="rounded=0;whiteSpace=wrap;html=1;fillColor=#60a917;fontColor=#ffffff;strokeColor=#60A917;fontSize=20;" vertex="1" parent="1">
          <mxGeometry x="523" y="410" width="130" height="40" as="geometry" />
        </mxCell>
        <mxCell id="7OBV4AjD6HKa3d46_83u-84" value="" style="swimlane;startSize=0;" vertex="1" parent="1">
          <mxGeometry x="188" y="650" width="660" height="220" as="geometry" />
        </mxCell>
        <mxCell id="7OBV4AjD6HKa3d46_83u-90" value="&lt;div&gt;&lt;span style=&quot;font-size: 9.75pt;&quot;&gt;经理&lt;/span&gt;&lt;/div&gt;" style="rounded=0;whiteSpace=wrap;html=1;fillColor=#1ba1e2;fontColor=#FFFFFF;strokeColor=#006EAF;" vertex="1" parent="7OBV4AjD6HKa3d46_83u-84">
          <mxGeometry x="280" y="30" width="100" height="40" as="geometry" />
        </mxCell>
        <mxCell id="7OBV4AjD6HKa3d46_83u-95" value="" style="edgeStyle=orthogonalEdgeStyle;rounded=0;orthogonalLoop=1;jettySize=auto;html=1;strokeWidth=2;" edge="1" parent="7OBV4AjD6HKa3d46_83u-84" target="7OBV4AjD6HKa3d46_83u-94">
          <mxGeometry relative="1" as="geometry">
            <mxPoint x="330" y="90" as="sourcePoint" />
          </mxGeometry>
        </mxCell>
        <mxCell id="7OBV4AjD6HKa3d46_83u-97" value="" style="edgeStyle=orthogonalEdgeStyle;rounded=0;orthogonalLoop=1;jettySize=auto;html=1;strokeWidth=2;" edge="1" parent="7OBV4AjD6HKa3d46_83u-84" target="7OBV4AjD6HKa3d46_83u-96">
          <mxGeometry relative="1" as="geometry">
            <mxPoint x="330" y="90" as="sourcePoint" />
          </mxGeometry>
        </mxCell>
        <mxCell id="7OBV4AjD6HKa3d46_83u-91" value="&lt;div&gt;&lt;span style=&quot;font-size: 9.75pt;&quot;&gt;副经理1&lt;/span&gt;&lt;/div&gt;" style="rounded=0;whiteSpace=wrap;html=1;fillColor=#1ba1e2;fontColor=#FFFFFF;strokeColor=#006EAF;" vertex="1" parent="7OBV4AjD6HKa3d46_83u-84">
          <mxGeometry x="280" y="140" width="100" height="40" as="geometry" />
        </mxCell>
        <mxCell id="7OBV4AjD6HKa3d46_83u-92" value="" style="endArrow=classic;html=1;rounded=0;exitX=0.5;exitY=1;exitDx=0;exitDy=0;entryX=0.5;entryY=0;entryDx=0;entryDy=0;strokeWidth=2;" edge="1" parent="7OBV4AjD6HKa3d46_83u-84" source="7OBV4AjD6HKa3d46_83u-90" target="7OBV4AjD6HKa3d46_83u-91">
          <mxGeometry width="50" height="50" relative="1" as="geometry">
            <mxPoint x="240" y="120" as="sourcePoint" />
            <mxPoint x="290" y="70" as="targetPoint" />
          </mxGeometry>
        </mxCell>
        <mxCell id="7OBV4AjD6HKa3d46_83u-94" value="&lt;div&gt;&lt;span style=&quot;font-size: 9.75pt;&quot;&gt;副经理2&lt;/span&gt;&lt;/div&gt;" style="rounded=0;whiteSpace=wrap;html=1;fillColor=#1ba1e2;fontColor=#FFFFFF;strokeColor=#006EAF;" vertex="1" parent="7OBV4AjD6HKa3d46_83u-84">
          <mxGeometry x="40" y="140" width="100" height="40" as="geometry" />
        </mxCell>
        <mxCell id="7OBV4AjD6HKa3d46_83u-96" value="&lt;div&gt;&lt;span style=&quot;font-size: 9.75pt;&quot;&gt;主任工程师&lt;/span&gt;&lt;/div&gt;" style="rounded=0;whiteSpace=wrap;html=1;fillColor=#1ba1e2;fontColor=#FFFFFF;strokeColor=#006EAF;" vertex="1" parent="7OBV4AjD6HKa3d46_83u-84">
          <mxGeometry x="520" y="140" width="100" height="40" as="geometry" />
        </mxCell>
        <mxCell id="7OBV4AjD6HKa3d46_83u-87" value="" style="endArrow=classic;html=1;rounded=0;entryX=0.5;entryY=0;entryDx=0;entryDy=0;exitX=0.5;exitY=1;exitDx=0;exitDy=0;strokeWidth=2;" edge="1" parent="1">
          <mxGeometry width="50" height="50" relative="1" as="geometry">
            <mxPoint x="517.41" y="380" as="sourcePoint" />
            <mxPoint x="517.41" y="480" as="targetPoint" />
          </mxGeometry>
        </mxCell>
        <mxCell id="7OBV4AjD6HKa3d46_83u-106" value="" style="endArrow=classic;html=1;rounded=0;exitX=0.5;exitY=1;exitDx=0;exitDy=0;entryX=0.5;entryY=0;entryDx=0;entryDy=0;strokeWidth=2;" edge="1" parent="1" source="7OBV4AjD6HKa3d46_83u-41" target="7OBV4AjD6HKa3d46_83u-84">
          <mxGeometry width="50" height="50" relative="1" as="geometry">
            <mxPoint x="510" y="590" as="sourcePoint" />
            <mxPoint x="560" y="600" as="targetPoint" />
          </mxGeometry>
        </mxCell>
        <mxCell id="7OBV4AjD6HKa3d46_83u-107" value="&lt;div&gt;&lt;span style=&quot;font-size: 9.75pt;&quot;&gt;员工&lt;/span&gt;&lt;/div&gt;" style="rounded=0;whiteSpace=wrap;html=1;fillColor=#1ba1e2;fontColor=#FFFFFF;strokeColor=#006EAF;" vertex="1" parent="1">
          <mxGeometry x="468" y="920" width="100" height="40" as="geometry" />
        </mxCell>
        <mxCell id="7OBV4AjD6HKa3d46_83u-108" value="" style="endArrow=classic;html=1;rounded=0;exitX=0.5;exitY=1;exitDx=0;exitDy=0;entryX=0.5;entryY=0;entryDx=0;entryDy=0;strokeWidth=2;" edge="1" parent="1" source="7OBV4AjD6HKa3d46_83u-84" target="7OBV4AjD6HKa3d46_83u-107">
          <mxGeometry width="50" height="50" relative="1" as="geometry">
            <mxPoint x="500" y="910" as="sourcePoint" />
            <mxPoint x="550" y="860" as="targetPoint" />
          </mxGeometry>
        </mxCell>
        <mxCell id="7OBV4AjD6HKa3d46_83u-109" value="科室领导" style="rounded=0;whiteSpace=wrap;html=1;fillColor=#60a917;fontColor=#ffffff;strokeColor=#60A917;fontSize=20;" vertex="1" parent="1">
          <mxGeometry x="540" y="570" width="130" height="40" as="geometry" />
        </mxCell>
      </root>
    </mxGraphModel>
  </diagram>
</mxfile>
